<svg width="12" height="12" viewBox="0 0 12 12" fill="none" xmlns="http://www.w3.org/2000/svg">
<g id="metronome 1" clip-path="url(#clip0_1_88)">
<path id="Vector" d="M8.73802 4.19328L9.61479 3.16402C9.51271 2.98087 9.45455 2.76988 9.45455 2.54531C9.45455 1.8424 10.0244 1.27258 10.7273 1.27258C11.4302 1.27258 12 1.8424 12 2.54531C12 3.24822 11.4302 3.81804 10.7273 3.81804C10.5141 3.81804 10.3131 3.76562 10.1366 3.67297L9.10938 4.87886L11.5266 9.34148C11.5986 9.47443 11.6364 9.62325 11.6364 9.77446V10.5453C11.6364 11.0474 11.2294 11.4544 10.7273 11.4544H0.909091C0.407014 11.4544 0 11.0474 0 10.5453V9.77446C0 9.62325 0.0377177 9.47443 0.109736 9.34148L4.61643 1.02142C4.77534 0.728061 5.08216 0.545311 5.41579 0.545311H6.22058C6.55421 0.545311 6.86103 0.728061 7.01993 1.02142L8.73802 4.19328ZM1.3681 8.54531L0.749218 9.68786C0.734814 9.71445 0.727273 9.74422 0.727273 9.77446V10.5453C0.727273 10.6457 0.808675 10.7271 0.909091 10.7271H10.7273C10.8277 10.7271 10.9091 10.6457 10.9091 10.5453V9.77446C10.9091 9.74422 10.9016 9.71445 10.8871 9.68786L10.2683 8.54531H1.3681ZM8.23241 4.78682L6.38045 1.3678C6.34867 1.30913 6.2873 1.27258 6.22058 1.27258H5.41579C5.34906 1.27258 5.2877 1.30913 5.25592 1.3678L1.76204 7.81804H5.65026L8.23241 4.78682ZM8.60377 5.4724L6.60564 7.81804H9.87432L8.60377 5.4724ZM10.7273 3.09077C11.0285 3.09077 11.2727 2.84656 11.2727 2.54531C11.2727 2.24406 11.0285 1.99986 10.7273 1.99986C10.426 1.99986 10.1818 2.24406 10.1818 2.54531C10.1818 2.84656 10.426 3.09077 10.7273 3.09077Z" fill="white"/>
</g>
<defs>
<clipPath id="clip0_1_88">
<rect width="12" height="12" fill="white"/>
</clipPath>
</defs>
</svg>
