<svg width="26" height="27" viewBox="0 0 26 27" fill="none" xmlns="http://www.w3.org/2000/svg">
<g id="play icon copy" clip-path="url(#clip0_1_74)">
<path id="Path" d="M24.0448 10.3844L6.26594 0.554464C4.97968 -0.155816 3.42455 -0.185347 2.10589 0.475468C0.787233 1.13618 0 2.33963 0 3.69443V23.2648C0 25.3133 1.84021 26.9889 4.10196 26.9999C4.10814 26.9999 4.11431 27 4.12037 27C4.82717 26.9999 5.56372 26.8012 6.25166 26.4247C6.80507 26.1219 6.97998 25.474 6.64233 24.9776C6.30469 24.4812 5.58224 24.3244 5.02901 24.6272C4.70723 24.8032 4.39299 24.8943 4.1146 24.8943C3.26123 24.8901 2.34753 24.2344 2.34753 23.2649V3.69448C2.34753 3.1133 2.68524 2.59719 3.25082 2.31374C3.81647 2.03029 4.48347 2.04295 5.03453 2.34728L22.8135 12.1772C23.3479 12.4723 23.6536 12.9644 23.6523 13.5273C23.651 14.0901 23.343 14.5811 22.8057 14.8752L9.95148 21.9346C9.39859 22.2383 9.2248 22.8864 9.56333 23.3823C9.9018 23.8782 10.6244 24.0341 11.1773 23.7305L24.03 16.6719C25.2606 15.9985 25.9971 14.8246 26 13.5315C26.0029 12.2386 25.2718 11.062 24.0448 10.3844Z" fill="#272727"/>
</g>
<defs>
<clipPath id="clip0_1_74">
<rect width="26" height="27" fill="white"/>
</clipPath>
</defs>
</svg>
