<svg width="10" height="10" viewBox="0 0 10 10" fill="none" xmlns="http://www.w3.org/2000/svg">
<g id="stop">
<path id="Path" d="M9.60938 6.875C9.82512 6.875 10 6.70012 10 6.48438V1.5625C10 0.700938 9.29906 0 8.4375 0H1.5625C0.700938 0 0 0.700938 0 1.5625V8.4375C0 9.29906 0.700938 10 1.5625 10H8.4375C9.29906 10 10 9.29906 10 8.4375C10 8.22176 9.82512 8.04688 9.60938 8.04688C9.39363 8.04688 9.21875 8.22176 9.21875 8.4375C9.21875 8.86828 8.86828 9.21875 8.4375 9.21875H1.5625C1.13172 9.21875 0.78125 8.86828 0.78125 8.4375V1.5625C0.78125 1.13172 1.13172 0.78125 1.5625 0.78125H8.4375C8.86828 0.78125 9.21875 1.13172 9.21875 1.5625V6.48438C9.21875 6.70012 9.39363 6.875 9.60938 6.875Z" fill="white"/>
</g>
</svg>
